<svg width="58" height="58" viewBox="0 0 58 58" fill="none" xmlns="http://www.w3.org/2000/svg">
<rect width="58" height="58" rx="29" fill="black" fill-opacity="0.4"/>
<rect width="58" height="58" rx="29" fill="#6F67FF"/>
<path d="M31.6216 34.9146L20.9416 32.0016M25.9996 25.0176C24.1956 27.7276 22.0296 28.4776 19.4166 28.9656C19.3299 28.9814 19.2489 29.0195 19.1814 29.0762C19.114 29.1329 19.0625 29.2062 19.032 29.2889C19.0015 29.3716 18.9931 29.4608 19.0076 29.5477C19.0221 29.6346 19.059 29.7162 19.1146 29.7846L26.4346 38.6676C26.5833 38.8255 26.7793 38.9308 26.993 38.9676C27.2068 39.0044 27.4267 38.9707 27.6196 38.8716C29.7346 37.4226 32.9996 33.8096 32.9996 32.0176M35.3756 19.6396C35.5727 19.4424 35.8067 19.2861 36.0643 19.1794C36.3218 19.0727 36.5979 19.0178 36.8766 19.0178C37.1554 19.0178 37.4314 19.0727 37.689 19.1794C37.9465 19.2861 38.1805 19.4424 38.3776 19.6396C38.5747 19.8367 38.7311 20.0707 38.8378 20.3282C38.9444 20.5858 38.9994 20.8618 38.9994 21.1406C38.9994 21.4193 38.9444 21.6954 38.8378 21.9529C38.7311 22.2104 38.5747 22.4444 38.3776 22.6416L34.3596 26.6606C34.2659 26.7543 34.2132 26.8815 34.2132 27.0141C34.2132 27.1466 34.2659 27.2738 34.3596 27.3676L35.3036 28.3116C35.7555 28.7635 36.0094 29.3764 36.0094 30.0156C36.0094 30.6547 35.7555 31.2676 35.3036 31.7196L34.3596 32.6636C34.2659 32.7573 34.1387 32.81 34.0061 32.81C33.8735 32.81 33.7464 32.7573 33.6526 32.6636L25.3536 24.3656C25.2599 24.2718 25.2072 24.1446 25.2072 24.0121C25.2072 23.8795 25.2599 23.7523 25.3536 23.6586L26.2976 22.7146C26.7496 22.2627 27.3625 22.0088 28.0016 22.0088C28.6407 22.0088 29.2537 22.2627 29.7056 22.7146L30.6496 23.6586C30.7434 23.7523 30.8705 23.8049 31.0031 23.8049C31.1357 23.8049 31.2629 23.7523 31.3566 23.6586L35.3756 19.6396Z" stroke="white" stroke-opacity="0.9" stroke-width="2" stroke-linecap="round" stroke-linejoin="round"/>
</svg>
